<mxfile host="Electron" modified="2025-02-15T09:34:24.966Z" agent="Mozilla/5.0 (Windows NT 10.0; Win64; x64) AppleWebKit/537.36 (KHTML, like Gecko) draw.io/21.6.8 Chrome/114.0.5735.289 Electron/25.5.0 Safari/537.36" etag="OLecaa5gFIwNZwQhtlbp" version="21.6.8" type="device">
  <diagram name="Seite-1" id="elXYwqXQPEUBHFJTiidx">
    <mxGraphModel dx="1050" dy="629" grid="1" gridSize="10" guides="1" tooltips="1" connect="1" arrows="1" fold="1" page="1" pageScale="1" pageWidth="827" pageHeight="1169" math="0" shadow="0">
      <root>
        <mxCell id="0" />
        <mxCell id="1" parent="0" />
        <mxCell id="z970BABV5KEuyYaCTLqn-1" value="" style="whiteSpace=wrap;html=1;aspect=fixed;" vertex="1" parent="1">
          <mxGeometry x="150" y="110" width="350" height="350" as="geometry" />
        </mxCell>
        <mxCell id="z970BABV5KEuyYaCTLqn-2" value="User" style="shape=umlActor;verticalLabelPosition=bottom;verticalAlign=top;html=1;" vertex="1" parent="1">
          <mxGeometry x="70" y="180" width="30" height="60" as="geometry" />
        </mxCell>
        <mxCell id="z970BABV5KEuyYaCTLqn-5" value="&lt;font style=&quot;font-size: 18px;&quot;&gt;&lt;b&gt;View Monuments&lt;/b&gt;&lt;/font&gt;" style="text;html=1;align=center;verticalAlign=middle;resizable=0;points=[];autosize=1;strokeColor=none;fillColor=none;" vertex="1" parent="1">
          <mxGeometry x="150" y="110" width="170" height="40" as="geometry" />
        </mxCell>
        <mxCell id="z970BABV5KEuyYaCTLqn-6" value="View monument collection" style="ellipse;whiteSpace=wrap;html=1;" vertex="1" parent="1">
          <mxGeometry x="200" y="150" width="120" height="80" as="geometry" />
        </mxCell>
        <mxCell id="z970BABV5KEuyYaCTLqn-7" value="" style="endArrow=none;html=1;rounded=0;entryX=0;entryY=0.5;entryDx=0;entryDy=0;" edge="1" parent="1" target="z970BABV5KEuyYaCTLqn-6">
          <mxGeometry width="50" height="50" relative="1" as="geometry">
            <mxPoint x="110" y="220" as="sourcePoint" />
            <mxPoint x="160" y="170" as="targetPoint" />
          </mxGeometry>
        </mxCell>
        <mxCell id="z970BABV5KEuyYaCTLqn-8" value="View single monument" style="ellipse;whiteSpace=wrap;html=1;" vertex="1" parent="1">
          <mxGeometry x="200" y="245" width="120" height="80" as="geometry" />
        </mxCell>
        <mxCell id="z970BABV5KEuyYaCTLqn-9" value="" style="endArrow=none;html=1;rounded=0;entryX=0;entryY=0.5;entryDx=0;entryDy=0;" edge="1" parent="1" target="z970BABV5KEuyYaCTLqn-8">
          <mxGeometry width="50" height="50" relative="1" as="geometry">
            <mxPoint x="110" y="250" as="sourcePoint" />
            <mxPoint x="180" y="270" as="targetPoint" />
          </mxGeometry>
        </mxCell>
        <mxCell id="z970BABV5KEuyYaCTLqn-10" value="Show 3D model" style="ellipse;whiteSpace=wrap;html=1;" vertex="1" parent="1">
          <mxGeometry x="354" y="340" width="120" height="80" as="geometry" />
        </mxCell>
        <mxCell id="z970BABV5KEuyYaCTLqn-11" value="includes" style="html=1;verticalAlign=bottom;endArrow=open;dashed=1;endSize=8;edgeStyle=elbowEdgeStyle;elbow=vertical;curved=0;rounded=0;exitX=1;exitY=0.5;exitDx=0;exitDy=0;" edge="1" parent="1" source="z970BABV5KEuyYaCTLqn-8" target="z970BABV5KEuyYaCTLqn-10">
          <mxGeometry relative="1" as="geometry">
            <mxPoint x="330" y="390" as="sourcePoint" />
            <mxPoint x="250" y="390" as="targetPoint" />
          </mxGeometry>
        </mxCell>
        <mxCell id="z970BABV5KEuyYaCTLqn-12" value="Show monument information" style="ellipse;whiteSpace=wrap;html=1;" vertex="1" parent="1">
          <mxGeometry x="175" y="370" width="120" height="80" as="geometry" />
        </mxCell>
        <mxCell id="z970BABV5KEuyYaCTLqn-13" value="includes" style="html=1;verticalAlign=bottom;endArrow=open;dashed=1;endSize=8;edgeStyle=elbowEdgeStyle;elbow=vertical;curved=0;rounded=0;exitX=0.5;exitY=1;exitDx=0;exitDy=0;entryX=0.5;entryY=0;entryDx=0;entryDy=0;" edge="1" parent="1" source="z970BABV5KEuyYaCTLqn-8" target="z970BABV5KEuyYaCTLqn-12">
          <mxGeometry relative="1" as="geometry">
            <mxPoint x="330" y="295" as="sourcePoint" />
            <mxPoint x="424" y="350" as="targetPoint" />
          </mxGeometry>
        </mxCell>
        <mxCell id="z970BABV5KEuyYaCTLqn-14" value="&lt;b&gt;&quot;View monuments&quot;&lt;/b&gt;" style="rounded=0;whiteSpace=wrap;html=1;" vertex="1" parent="1">
          <mxGeometry x="100" y="630" width="140" height="30" as="geometry" />
        </mxCell>
        <mxCell id="z970BABV5KEuyYaCTLqn-15" value="App (Frontend)" style="shape=umlLifeline;perimeter=lifelinePerimeter;whiteSpace=wrap;html=1;container=1;dropTarget=0;collapsible=0;recursiveResize=0;outlineConnect=0;portConstraint=eastwest;newEdgeStyle={&quot;edgeStyle&quot;:&quot;elbowEdgeStyle&quot;,&quot;elbow&quot;:&quot;vertical&quot;,&quot;curved&quot;:0,&quot;rounded&quot;:0};" vertex="1" parent="1">
          <mxGeometry x="160" y="700" width="100" height="420" as="geometry" />
        </mxCell>
        <mxCell id="z970BABV5KEuyYaCTLqn-28" value="" style="html=1;points=[];perimeter=orthogonalPerimeter;outlineConnect=0;targetShapes=umlLifeline;portConstraint=eastwest;newEdgeStyle={&quot;edgeStyle&quot;:&quot;elbowEdgeStyle&quot;,&quot;elbow&quot;:&quot;vertical&quot;,&quot;curved&quot;:0,&quot;rounded&quot;:0};" vertex="1" parent="z970BABV5KEuyYaCTLqn-15">
          <mxGeometry x="45" y="200" width="10" height="40" as="geometry" />
        </mxCell>
        <mxCell id="z970BABV5KEuyYaCTLqn-29" value="show monuments" style="html=1;align=left;spacingLeft=2;endArrow=block;rounded=0;edgeStyle=orthogonalEdgeStyle;curved=0;rounded=0;" edge="1" target="z970BABV5KEuyYaCTLqn-28" parent="z970BABV5KEuyYaCTLqn-15">
          <mxGeometry relative="1" as="geometry">
            <mxPoint x="50" y="180" as="sourcePoint" />
            <Array as="points">
              <mxPoint x="80" y="210" />
            </Array>
          </mxGeometry>
        </mxCell>
        <mxCell id="z970BABV5KEuyYaCTLqn-36" value="" style="html=1;points=[];perimeter=orthogonalPerimeter;outlineConnect=0;targetShapes=umlLifeline;portConstraint=eastwest;newEdgeStyle={&quot;edgeStyle&quot;:&quot;elbowEdgeStyle&quot;,&quot;elbow&quot;:&quot;vertical&quot;,&quot;curved&quot;:0,&quot;rounded&quot;:0};" vertex="1" parent="z970BABV5KEuyYaCTLqn-15">
          <mxGeometry x="50" y="360" width="10" height="40" as="geometry" />
        </mxCell>
        <mxCell id="z970BABV5KEuyYaCTLqn-37" value="show monument" style="html=1;align=left;spacingLeft=2;endArrow=block;rounded=0;edgeStyle=orthogonalEdgeStyle;curved=0;rounded=0;" edge="1" target="z970BABV5KEuyYaCTLqn-36" parent="z970BABV5KEuyYaCTLqn-15">
          <mxGeometry relative="1" as="geometry">
            <mxPoint x="55" y="340" as="sourcePoint" />
            <Array as="points">
              <mxPoint x="85" y="370" />
            </Array>
          </mxGeometry>
        </mxCell>
        <mxCell id="z970BABV5KEuyYaCTLqn-20" value="Backend" style="shape=umlLifeline;perimeter=lifelinePerimeter;whiteSpace=wrap;html=1;container=1;dropTarget=0;collapsible=0;recursiveResize=0;outlineConnect=0;portConstraint=eastwest;newEdgeStyle={&quot;edgeStyle&quot;:&quot;elbowEdgeStyle&quot;,&quot;elbow&quot;:&quot;vertical&quot;,&quot;curved&quot;:0,&quot;rounded&quot;:0};" vertex="1" parent="1">
          <mxGeometry x="510" y="700" width="100" height="420" as="geometry" />
        </mxCell>
        <mxCell id="z970BABV5KEuyYaCTLqn-23" value="" style="endArrow=classic;html=1;rounded=0;" edge="1" parent="1">
          <mxGeometry width="50" height="50" relative="1" as="geometry">
            <mxPoint x="209.5" y="790" as="sourcePoint" />
            <mxPoint x="559.5" y="790" as="targetPoint" />
          </mxGeometry>
        </mxCell>
        <mxCell id="z970BABV5KEuyYaCTLqn-24" value="GET /collection/{userId}" style="text;html=1;align=center;verticalAlign=middle;resizable=0;points=[];autosize=1;strokeColor=none;fillColor=none;" vertex="1" parent="1">
          <mxGeometry x="290" y="760" width="150" height="30" as="geometry" />
        </mxCell>
        <mxCell id="z970BABV5KEuyYaCTLqn-25" value="" style="endArrow=classic;html=1;rounded=0;dashed=1;" edge="1" parent="1">
          <mxGeometry width="50" height="50" relative="1" as="geometry">
            <mxPoint x="559.5" y="850" as="sourcePoint" />
            <mxPoint x="209.5" y="850" as="targetPoint" />
          </mxGeometry>
        </mxCell>
        <mxCell id="z970BABV5KEuyYaCTLqn-26" value="return Monument[]" style="text;html=1;align=center;verticalAlign=middle;resizable=0;points=[];autosize=1;strokeColor=none;fillColor=none;" vertex="1" parent="1">
          <mxGeometry x="310" y="818" width="120" height="30" as="geometry" />
        </mxCell>
        <mxCell id="z970BABV5KEuyYaCTLqn-30" value="" style="endArrow=classic;html=1;rounded=0;" edge="1" parent="1">
          <mxGeometry width="50" height="50" relative="1" as="geometry">
            <mxPoint x="209.5" y="980" as="sourcePoint" />
            <mxPoint x="559.5" y="980" as="targetPoint" />
          </mxGeometry>
        </mxCell>
        <mxCell id="z970BABV5KEuyYaCTLqn-31" value="GET/monument/{monumentKey}" style="text;html=1;align=center;verticalAlign=middle;resizable=0;points=[];autosize=1;strokeColor=none;fillColor=none;" vertex="1" parent="1">
          <mxGeometry x="279" y="948" width="200" height="30" as="geometry" />
        </mxCell>
        <mxCell id="z970BABV5KEuyYaCTLqn-32" value="" style="endArrow=classic;html=1;rounded=0;dashed=1;" edge="1" parent="1">
          <mxGeometry width="50" height="50" relative="1" as="geometry">
            <mxPoint x="559.5" y="1020" as="sourcePoint" />
            <mxPoint x="209.5" y="1020" as="targetPoint" />
          </mxGeometry>
        </mxCell>
        <mxCell id="z970BABV5KEuyYaCTLqn-33" value="return Monument" style="edgeLabel;html=1;align=center;verticalAlign=middle;resizable=0;points=[];" vertex="1" connectable="0" parent="z970BABV5KEuyYaCTLqn-32">
          <mxGeometry x="0.2806" y="-9" relative="1" as="geometry">
            <mxPoint x="44" y="-1" as="offset" />
          </mxGeometry>
        </mxCell>
        <mxCell id="z970BABV5KEuyYaCTLqn-38" value="1" style="ellipse;whiteSpace=wrap;html=1;aspect=fixed;" vertex="1" parent="1">
          <mxGeometry x="180" y="150" width="20" height="20" as="geometry" />
        </mxCell>
        <mxCell id="z970BABV5KEuyYaCTLqn-39" value="2" style="ellipse;whiteSpace=wrap;html=1;aspect=fixed;" vertex="1" parent="1">
          <mxGeometry x="190" y="240" width="20" height="20" as="geometry" />
        </mxCell>
      </root>
    </mxGraphModel>
  </diagram>
</mxfile>
